<svg xmlns="http://www.w3.org/2000/svg" viewBox="0 0 600 360" width="600" height="360"><defs><linearGradient id="sky" x1="0" y1="0" x2="0" y2="1"><stop offset="0" stop-color="#bfa77a"/><stop offset="1" stop-color="#f2e6c9"/></linearGradient><pattern id="hatch" width="5" height="5" patternUnits="userSpaceOnUse" patternTransform="rotate(35)"><line x1="0" y1="0" x2="0" y2="5" stroke="#3a2814" stroke-width="1" opacity=".35"/></pattern><radialGradient id="glow"><stop offset="0" stop-color="#fff8e2"/><stop offset=".5" stop-color="#f7e7bd" stop-opacity=".8"/><stop offset="1" stop-color="#f7e7bd" stop-opacity="0"/></radialGradient></defs><rect width="600" height="360" fill="url(#sky)"/><rect x="60" y="180" width="120" height="70" fill="#e2cfa4" stroke="#3a2814" stroke-width="1.2"/><line x1="60" y1="240" x2="180" y2="240" stroke="#3a2814" stroke-width=".6" opacity=".5"/><line x1="60" y1="240" x2="60" y2="250" stroke="#3a2814" stroke-width=".6" opacity=".5"/><line x1="78" y1="240" x2="78" y2="250" stroke="#3a2814" stroke-width=".6" opacity=".5"/><line x1="96" y1="240" x2="96" y2="250" stroke="#3a2814" stroke-width=".6" opacity=".5"/><line x1="114" y1="240" x2="114" y2="250" stroke="#3a2814" stroke-width=".6" opacity=".5"/><line x1="132" y1="240" x2="132" y2="250" stroke="#3a2814" stroke-width=".6" opacity=".5"/><line x1="150" y1="240" x2="150" y2="250" stroke="#3a2814" stroke-width=".6" opacity=".5"/><line x1="168" y1="240" x2="168" y2="250" stroke="#3a2814" stroke-width=".6" opacity=".5"/><line x1="60" y1="230" x2="180" y2="230" stroke="#3a2814" stroke-width=".6" opacity=".5"/><line x1="69" y1="230" x2="69" y2="240" stroke="#3a2814" stroke-width=".6" opacity=".5"/><line x1="87" y1="230" x2="87" y2="240" stroke="#3a2814" stroke-width=".6" opacity=".5"/><line x1="105" y1="230" x2="105" y2="240" stroke="#3a2814" stroke-width=".6" opacity=".5"/><line x1="123" y1="230" x2="123" y2="240" stroke="#3a2814" stroke-width=".6" opacity=".5"/><line x1="141" y1="230" x2="141" y2="240" stroke="#3a2814" stroke-width=".6" opacity=".5"/><line x1="159" y1="230" x2="159" y2="240" stroke="#3a2814" stroke-width=".6" opacity=".5"/><line x1="177" y1="230" x2="177" y2="240" stroke="#3a2814" stroke-width=".6" opacity=".5"/><line x1="60" y1="220" x2="180" y2="220" stroke="#3a2814" stroke-width=".6" opacity=".5"/><line x1="60" y1="220" x2="60" y2="230" stroke="#3a2814" stroke-width=".6" opacity=".5"/><line x1="78" y1="220" x2="78" y2="230" stroke="#3a2814" stroke-width=".6" opacity=".5"/><line x1="96" y1="220" x2="96" y2="230" stroke="#3a2814" stroke-width=".6" opacity=".5"/><line x1="114" y1="220" x2="114" y2="230" stroke="#3a2814" stroke-width=".6" opacity=".5"/><line x1="132" y1="220" x2="132" y2="230" stroke="#3a2814" stroke-width=".6" opacity=".5"/><line x1="150" y1="220" x2="150" y2="230" stroke="#3a2814" stroke-width=".6" opacity=".5"/><line x1="168" y1="220" x2="168" y2="230" stroke="#3a2814" stroke-width=".6" opacity=".5"/><line x1="60" y1="210" x2="180" y2="210" stroke="#3a2814" stroke-width=".6" opacity=".5"/><line x1="69" y1="210" x2="69" y2="220" stroke="#3a2814" stroke-width=".6" opacity=".5"/><line x1="87" y1="210" x2="87" y2="220" stroke="#3a2814" stroke-width=".6" opacity=".5"/><line x1="105" y1="210" x2="105" y2="220" stroke="#3a2814" stroke-width=".6" opacity=".5"/><line x1="123" y1="210" x2="123" y2="220" stroke="#3a2814" stroke-width=".6" opacity=".5"/><line x1="141" y1="210" x2="141" y2="220" stroke="#3a2814" stroke-width=".6" opacity=".5"/><line x1="159" y1="210" x2="159" y2="220" stroke="#3a2814" stroke-width=".6" opacity=".5"/><line x1="177" y1="210" x2="177" y2="220" stroke="#3a2814" stroke-width=".6" opacity=".5"/><line x1="60" y1="200" x2="180" y2="200" stroke="#3a2814" stroke-width=".6" opacity=".5"/><line x1="60" y1="200" x2="60" y2="210" stroke="#3a2814" stroke-width=".6" opacity=".5"/><line x1="78" y1="200" x2="78" y2="210" stroke="#3a2814" stroke-width=".6" opacity=".5"/><line x1="96" y1="200" x2="96" y2="210" stroke="#3a2814" stroke-width=".6" opacity=".5"/><line x1="114" y1="200" x2="114" y2="210" stroke="#3a2814" stroke-width=".6" opacity=".5"/><line x1="132" y1="200" x2="132" y2="210" stroke="#3a2814" stroke-width=".6" opacity=".5"/><line x1="150" y1="200" x2="150" y2="210" stroke="#3a2814" stroke-width=".6" opacity=".5"/><line x1="168" y1="200" x2="168" y2="210" stroke="#3a2814" stroke-width=".6" opacity=".5"/><line x1="60" y1="190" x2="180" y2="190" stroke="#3a2814" stroke-width=".6" opacity=".5"/><line x1="69" y1="190" x2="69" y2="200" stroke="#3a2814" stroke-width=".6" opacity=".5"/><line x1="87" y1="190" x2="87" y2="200" stroke="#3a2814" stroke-width=".6" opacity=".5"/><line x1="105" y1="190" x2="105" y2="200" stroke="#3a2814" stroke-width=".6" opacity=".5"/><line x1="123" y1="190" x2="123" y2="200" stroke="#3a2814" stroke-width=".6" opacity=".5"/><line x1="141" y1="190" x2="141" y2="200" stroke="#3a2814" stroke-width=".6" opacity=".5"/><line x1="159" y1="190" x2="159" y2="200" stroke="#3a2814" stroke-width=".6" opacity=".5"/><line x1="177" y1="190" x2="177" y2="200" stroke="#3a2814" stroke-width=".6" opacity=".5"/><path d="M60 180 l20 -10 l14 14 l20 -18 l10 12 l20 -8 l16 10 l0 20 L60 200 Z" fill="#f2e6c9"/><path d="M380 250 l40 -60 l40 30 l30 -50 l30 80 Z" fill="#b39467" stroke="#3a2814"/><rect x="0" y="260" width="600" height="100" fill="#d6c49c"/><path d="M0 266 q9 -4.2 18 0 q9 -4.4 18 0 q9 -4.6 18 0 q9 -5.8 18 0 q9 -5 18 0 q9 -5.4 18 0 q9 -4.2 18 0 q9 -5 18 0 q9 -5.7 18 0 q9 -5 18 0 q9 -5.9 18 0 q9 -5.8 18 0 q9 -4.7 18 0 q9 -4 18 0 q9 -5.5 18 0 q9 -4.3 18 0 q9 -4 18 0 q9 -5.5 18 0 q9 -5.7 18 0 q9 -5.7 18 0 q9 -5.9 18 0 q9 -4.4 18 0 q9 -4.2 18 0 q9 -4.2 18 0 q9 -6 18 0 q9 -4.2 18 0 q9 -4.3 18 0 q9 -4 18 0 q9 -4.1 18 0 q9 -4.1 18 0 q9 -4.7 18 0 q9 -4.3 18 0 q9 -4.6 18 0 q9 -5.9 18 0" fill="none" stroke="#3a2814" stroke-width="1" opacity=".55"/><path d="M0 291 q11 -4.3 22 0 q11 -5.6 22 0 q11 -5.5 22 0 q11 -5.1 22 0 q11 -5.2 22 0 q11 -5.5 22 0 q11 -5.2 22 0 q11 -4.5 22 0 q11 -4.7 22 0 q11 -4.5 22 0 q11 -4.8 22 0 q11 -6 22 0 q11 -4.9 22 0 q11 -4.1 22 0 q11 -5 22 0 q11 -5.6 22 0 q11 -4.9 22 0 q11 -5.4 22 0 q11 -4.2 22 0 q11 -4.1 22 0 q11 -5.3 22 0 q11 -4.1 22 0 q11 -4.6 22 0 q11 -4.8 22 0 q11 -4.4 22 0 q11 -4.1 22 0 q11 -4 22 0 q11 -5.9 22 0" fill="none" stroke="#3a2814" stroke-width="1" opacity=".55"/><path d="M0 316 q13 -5.4 26 0 q13 -5.9 26 0 q13 -5 26 0 q13 -5.9 26 0 q13 -5.7 26 0 q13 -5.2 26 0 q13 -5.1 26 0 q13 -5 26 0 q13 -4.5 26 0 q13 -4.8 26 0 q13 -5.4 26 0 q13 -4.4 26 0 q13 -5.7 26 0 q13 -5 26 0 q13 -5.2 26 0 q13 -5.6 26 0 q13 -5.3 26 0 q13 -4.3 26 0 q13 -4.5 26 0 q13 -4 26 0 q13 -4.1 26 0 q13 -5.9 26 0 q13 -5.2 26 0 q13 -5.9 26 0" fill="none" stroke="#3a2814" stroke-width="1" opacity=".55"/><path d="M0 341 q15 -5.6 30 0 q15 -4.6 30 0 q15 -5.9 30 0 q15 -5.8 30 0 q15 -4.9 30 0 q15 -4.2 30 0 q15 -4.6 30 0 q15 -4.3 30 0 q15 -4.7 30 0 q15 -4.2 30 0 q15 -5.4 30 0 q15 -6 30 0 q15 -4.4 30 0 q15 -5.6 30 0 q15 -5.2 30 0 q15 -5 30 0 q15 -5.8 30 0 q15 -4.8 30 0 q15 -5.6 30 0 q15 -4.1 30 0" fill="none" stroke="#3a2814" stroke-width="1" opacity=".55"/><path d="M494.5 270 L497.2 215 L502.8 215 L505.5 270 Z" fill="#b39467" stroke="#3a2814"/><ellipse cx="500" cy="193" rx="35.8" ry="33" fill="#b39467" stroke="#3a2814" stroke-width="1.2"/><ellipse cx="500" cy="193" rx="35.8" ry="33" fill="url(#hatch)"/><path d="M95.5 272 L97.8 227 L102.2 227 L104.5 272 Z" fill="#b39467" stroke="#3a2814"/><ellipse cx="100" cy="209" rx="29.2" ry="27" fill="#b39467" stroke="#3a2814" stroke-width="1.2"/><ellipse cx="100" cy="209" rx="29.2" ry="27" fill="url(#hatch)"/><path d="M470 230 l-10 26 l18 0 Z" fill="none" stroke="#3a2814" stroke-width="1.5"/><g><path d="M220.3 310.1 Q217.4 327 216 341.1 L232.9 341.1 Q231.5 327 228.7 310.1 Z" fill="#a3845a" stroke="#3a2814" stroke-width="1.2"/><path d="M225.9 314.4 L226.6 339.7" stroke="#3a2814" stroke-width=".8" opacity=".6"/><circle cx="224.5" cy="304.5" r="4.6" fill="#e2cfa4" stroke="#3a2814" stroke-width="1.1"/><path d="M219.2 308.7 Q218.9 298.2 224.5 298.9 L224.5 298.9 Q230.1 298.2 229.7 308.7 Z" fill="#a3845a" stroke="#3a2814" stroke-width="1"/></g><g><path d="M275.5 311.5 Q272.8 327.2 271.5 340.3 L287.2 340.3 Q285.9 327.2 283.3 311.5 Z" fill="#a3845a" stroke="#3a2814" stroke-width="1.2"/><path d="M280.7 315.4 L281.3 339" stroke="#3a2814" stroke-width=".8" opacity=".6"/><path d="M279.4 314.1 L285.3 319.3 L285.9 311.5" fill="none" stroke="#3a2814" stroke-width="2" stroke-linecap="round"/><circle cx="279.4" cy="306.2" r="4.3" fill="#e2cfa4" stroke="#3a2814" stroke-width="1.1"/><path d="M274.5 310.2 Q274.1 300.3 279.4 301 L279.4 301 Q284.6 300.3 284.3 310.2 Z" fill="#a3845a" stroke="#3a2814" stroke-width="1"/></g><g><path d="M306.7 307.7 Q303.8 325.1 302.3 339.6 L319.7 339.6 Q318.2 325.1 315.3 307.7 Z" fill="#e2cfa4" stroke="#3a2814" stroke-width="1.2"/><path d="M309.5 312.1 L308.8 338.1" stroke="#3a2814" stroke-width=".8" opacity=".6"/><path d="M311 310.6 L304.5 316.4 L303.8 307.7" fill="none" stroke="#3a2814" stroke-width="2.2" stroke-linecap="round"/><circle cx="311" cy="301.9" r="4.7" fill="#e2cfa4" stroke="#3a2814" stroke-width="1.1"/><path d="M305.6 306.3 Q305.2 295.4 311 296.1 L311 296.1 Q316.8 295.4 316.4 306.3 Z" fill="#e2cfa4" stroke="#3a2814" stroke-width="1"/></g><g><path d="M346.7 308.6 Q343.8 325.8 342.4 340.1 L359.6 340.1 Q358.1 325.8 355.3 308.6 Z" fill="#e2cfa4" stroke="#3a2814" stroke-width="1.2"/><path d="M352.4 312.9 L353.1 338.7" stroke="#3a2814" stroke-width=".8" opacity=".6"/><path d="M351 311.5 L357.4 317.2 L358.1 308.6" fill="none" stroke="#3a2814" stroke-width="2.1" stroke-linecap="round"/><circle cx="351" cy="302.9" r="4.7" fill="#e2cfa4" stroke="#3a2814" stroke-width="1.1"/><path d="M345.6 307.2 Q345.2 296.4 351 297.2 L351 297.2 Q356.7 296.4 356.3 307.2 Z" fill="#e2cfa4" stroke="#3a2814" stroke-width="1"/></g><g><path d="M409 313.2 Q404.9 329.6 403.5 340.4 L402.2 340.4 Q415.8 328.2 417.1 313.2 Z" fill="#e2cfa4" stroke="#3a2814" stroke-width="1.2"/><path d="M411.7 314.6 L411 339.1" stroke="#3a2814" stroke-width=".8" opacity=".6"/><path d="M413.1 314.6 L406.9 320 L406.3 311.9" fill="none" stroke="#3a2814" stroke-width="2" stroke-linecap="round"/><circle cx="413.1" cy="309.8" r="4.4" fill="#e2cfa4" stroke="#3a2814" stroke-width="1.1"/><path d="M408 313.9 Q407.6 303.7 413.1 304.4 L413.1 304.4 Q418.5 303.7 418.2 313.9 Z" fill="#e2cfa4" stroke="#3a2814" stroke-width="1"/></g><rect x="5" y="5" width="590" height="350" fill="none" stroke="#3a2814" stroke-width="2"/><rect x="11" y="11" width="578" height="338" fill="none" stroke="#3a2814" stroke-width=".8"/></svg>