<svg xmlns="http://www.w3.org/2000/svg" viewBox="0 0 600 360" width="600" height="360"><defs><linearGradient id="sky" x1="0" y1="0" x2="0" y2="1"><stop offset="0" stop-color="#e2cfa4"/><stop offset="1" stop-color="#f2e6c9"/></linearGradient><pattern id="hatch" width="5" height="5" patternUnits="userSpaceOnUse" patternTransform="rotate(35)"><line x1="0" y1="0" x2="0" y2="5" stroke="#3a2814" stroke-width="1" opacity=".35"/></pattern><radialGradient id="glow"><stop offset="0" stop-color="#fff8e2"/><stop offset=".5" stop-color="#f7e7bd" stop-opacity=".8"/><stop offset="1" stop-color="#f7e7bd" stop-opacity="0"/></radialGradient></defs><rect width="600" height="360" fill="url(#sky)"/><circle cx="90" cy="70" r="64" fill="url(#glow)"/><circle cx="90" cy="70" r="16" fill="#fbf1d2" stroke="#b8862b" stroke-width="1.5"/><g stroke="#b8862b" stroke-width="1.4" opacity="0.6"><line x1="111.8" y1="72.9" x2="145.5" y2="77.3"/><line x1="110.3" y1="78.4" x2="141.7" y2="91.4"/><line x1="107.5" y1="83.4" x2="134.4" y2="104.1"/><line x1="103.4" y1="87.5" x2="124.1" y2="114.4"/><line x1="98.4" y1="90.3" x2="111.4" y2="121.7"/><line x1="92.9" y1="91.8" x2="97.3" y2="125.5"/><line x1="87.1" y1="91.8" x2="82.7" y2="125.5"/><line x1="81.6" y1="90.3" x2="68.6" y2="121.7"/><line x1="76.6" y1="87.5" x2="55.9" y2="114.4"/><line x1="72.5" y1="83.4" x2="45.6" y2="104.1"/><line x1="69.7" y1="78.4" x2="38.3" y2="91.4"/><line x1="68.2" y1="72.9" x2="34.5" y2="77.3"/><line x1="68.2" y1="67.1" x2="34.5" y2="62.7"/><line x1="69.7" y1="61.6" x2="38.3" y2="48.6"/><line x1="72.5" y1="56.6" x2="45.6" y2="35.9"/><line x1="76.6" y1="52.5" x2="55.9" y2="25.6"/><line x1="81.6" y1="49.7" x2="68.6" y2="18.3"/><line x1="87.1" y1="48.2" x2="82.7" y2="14.5"/><line x1="92.9" y1="48.2" x2="97.3" y2="14.5"/><line x1="98.4" y1="49.7" x2="111.4" y2="18.3"/><line x1="103.4" y1="52.5" x2="124.1" y2="25.6"/><line x1="107.5" y1="56.6" x2="134.4" y2="35.9"/><line x1="110.3" y1="61.6" x2="141.7" y2="48.6"/><line x1="111.8" y1="67.1" x2="145.5" y2="62.7"/></g><path d="M0 235.8 Q37.5 235.8 75 221.3 Q112.5 221.3 150 238.8 Q187.5 238.8 225 212.4 Q262.5 212.4 300 239.9 Q337.5 239.9 375 218.9 Q412.5 218.9 450 231.9 Q487.5 231.9 525 226.5 Q562.5 226.5 600 235 L600 360 L0 360 Z" fill="#c6ad7c" stroke="#3a2814" stroke-width="1.2"/><path d="M0 235.8 Q37.5 235.8 75 221.3 Q112.5 221.3 150 238.8 Q187.5 238.8 225 212.4 Q262.5 212.4 300 239.9 Q337.5 239.9 375 218.9 Q412.5 218.9 450 231.9 Q487.5 231.9 525 226.5 Q562.5 226.5 600 235 L600 360 L0 360 Z" fill="url(#hatch)"/><rect x="0" y="280" width="600" height="80" fill="#e2cfa4"/><line x1="0" y1="280" x2="600" y2="280" stroke="#3a2814" stroke-width="1"/><path d="M520 285 Q531 230 525.5 175" fill="none" stroke="#3a2814" stroke-width="5.5"/><path d="M525.5 175 Q502.2 158.5 479 177.3" fill="none" stroke="#3a2814" stroke-width="3.3"/><path d="M525.5 175 Q509.6 158.5 493.7 156.3" fill="none" stroke="#3a2814" stroke-width="3.3"/><path d="M525.5 175 Q521.2 158.5 516.9 145.5" fill="none" stroke="#3a2814" stroke-width="3.3"/><path d="M525.5 175 Q534 158.5 542.4 147.7" fill="none" stroke="#3a2814" stroke-width="3.3"/><path d="M525.5 175 Q544.5 158.5 563.4 162.4" fill="none" stroke="#3a2814" stroke-width="3.3"/><path d="M525.5 175 Q549.4 158.5 573.3 181.4" fill="none" stroke="#3a2814" stroke-width="3.3"/><ellipse cx="300" cy="300" rx="50" ry="12" fill="#b39467" stroke="#3a2814"/><path d="M250 300 L250 270 L350 270 L350 300" fill="#e2cfa4" stroke="#3a2814"/><path d="M262 270 L262 230 L338 230 L338 270 M262 236 L338 236" fill="none" stroke="#3a2814" stroke-width="2.5"/><g><path d="M214 276 Q210 300 208 320 L232 320 Q230 300 226 276 Z" fill="#e2cfa4" stroke="#3a2814" stroke-width="1.2"/><path d="M222 282 L223 318" stroke="#3a2814" stroke-width=".8" opacity=".6"/><path d="M224 278 L242 272" stroke="#3a2814" stroke-width="3" stroke-linecap="round"/><circle cx="220" cy="268" r="6.5" fill="#e2cfa4" stroke="#3a2814" stroke-width="1.1"/><path d="M212.5 274 Q212 259 220 260 L220 260 Q228 259 227.5 274 Z" fill="#e2cfa4" stroke="#3a2814" stroke-width="1"/></g><g><path d="M374.2 279.5 Q370.3 302.7 368.4 322 L391.6 322 Q389.7 302.7 385.8 279.5 Z" fill="#b39467" stroke="#3a2814" stroke-width="1.2"/><path d="M378.1 285.3 L377.1 320.1" stroke="#3a2814" stroke-width=".8" opacity=".6"/><path d="M367.4 322 L367.4 262.1 q4.8 -5.8 7.7 0" fill="none" stroke="#3a2814" stroke-width="2.1" stroke-linecap="round"/><path d="M376.1 285.3 L367.4 287.2" stroke="#3a2814" stroke-width="2.9" stroke-linecap="round"/><circle cx="380" cy="271.7" r="6.3" fill="#e2cfa4" stroke="#3a2814" stroke-width="1.1"/><path d="M372.8 277.5 Q372.3 263 380 264 L380 264 Q387.7 263 387.2 277.5 Z" fill="#b39467" stroke="#3a2814" stroke-width="1"/></g><g transform="translate(470 330) scale(-0.9 0.9)"><path d="M-30 -30 Q-28 -52 -12 -48 Q-4 -62 6 -46 Q18 -44 22 -36 L32 -58 L40 -56 L34 -30 Q30 -24 22 -26 L20 0 L15 0 L14 -24 L-18 -24 L-20 0 L-25 0 L-24 -26 Q-30 -26 -30 -30 Z" fill="#c9a66e" stroke="#3a2814" stroke-width="1.2"/></g><rect x="5" y="5" width="590" height="350" fill="none" stroke="#3a2814" stroke-width="2"/><rect x="11" y="11" width="578" height="338" fill="none" stroke="#3a2814" stroke-width=".8"/></svg>