<svg xmlns="http://www.w3.org/2000/svg" viewBox="0 0 600 360" width="600" height="360"><defs><linearGradient id="sky" x1="0" y1="0" x2="0" y2="1"><stop offset="0" stop-color="#9d8661"/><stop offset="1" stop-color="#d8c49a"/></linearGradient><pattern id="hatch" width="5" height="5" patternUnits="userSpaceOnUse" patternTransform="rotate(35)"><line x1="0" y1="0" x2="0" y2="5" stroke="#3a2814" stroke-width="1" opacity=".35"/></pattern><radialGradient id="glow"><stop offset="0" stop-color="#fff8e2"/><stop offset=".5" stop-color="#f7e7bd" stop-opacity=".8"/><stop offset="1" stop-color="#f7e7bd" stop-opacity="0"/></radialGradient></defs><rect width="600" height="360" fill="url(#sky)"/><ellipse cx="400" cy="60" rx="140" ry="18" fill="none" stroke="#3a2814" stroke-width="2" opacity=".55"/><ellipse cx="404" cy="84" rx="126" ry="18" fill="none" stroke="#3a2814" stroke-width="2" opacity=".55"/><ellipse cx="408" cy="108" rx="112" ry="18" fill="none" stroke="#3a2814" stroke-width="2" opacity=".55"/><ellipse cx="412" cy="132" rx="98" ry="18" fill="none" stroke="#3a2814" stroke-width="2" opacity=".55"/><ellipse cx="416" cy="156" rx="84" ry="18" fill="none" stroke="#3a2814" stroke-width="2" opacity=".55"/><ellipse cx="420" cy="180" rx="70" ry="18" fill="none" stroke="#3a2814" stroke-width="2" opacity=".55"/><ellipse cx="424" cy="204" rx="56" ry="18" fill="none" stroke="#3a2814" stroke-width="2" opacity=".55"/><ellipse cx="428" cy="228" rx="42" ry="18" fill="none" stroke="#3a2814" stroke-width="2" opacity=".55"/><ellipse cx="432" cy="252" rx="28" ry="18" fill="none" stroke="#3a2814" stroke-width="2" opacity=".55"/><path d="M0 288 Q37.5 288 75 270.2 Q112.5 270.2 150 284.2 Q187.5 284.2 225 271 Q262.5 271 300 285.3 Q337.5 285.3 375 271.5 Q412.5 271.5 450 290 Q487.5 290 525 274.5 Q562.5 274.5 600 288.5 L600 360 L0 360 Z" fill="#8a6f4b" stroke="#3a2814" stroke-width="1.2"/><path d="M0 288 Q37.5 288 75 270.2 Q112.5 270.2 150 284.2 Q187.5 284.2 225 271 Q262.5 271 300 285.3 Q337.5 285.3 375 271.5 Q412.5 271.5 450 290 Q487.5 290 525 274.5 Q562.5 274.5 600 288.5 L600 360 L0 360 Z" fill="url(#hatch)"/><rect x="0" y="310" width="600" height="50" fill="#c3aa7a"/><line x1="0" y1="310" x2="600" y2="310" stroke="#3a2814" stroke-width="1"/><g><path d="M193.4 296 Q186.8 322.4 184.6 340 L217.6 340 Q204.4 320.2 206.6 296 Z" fill="#e2cfa4" stroke="#3a2814" stroke-width="1.2"/><path d="M202.2 298.2 L203.3 337.8" stroke="#3a2814" stroke-width=".8" opacity=".6"/><path d="M200 298.2 L209.9 307 L211 293.8" fill="none" stroke="#3a2814" stroke-width="3.3" stroke-linecap="round"/><circle cx="200" cy="290.5" r="7.2" fill="#e2cfa4" stroke="#3a2814" stroke-width="1.1"/><path d="M191.8 297.1 Q191.2 280.6 200 281.7 L200 281.7 Q208.8 280.6 208.2 297.1 Z" fill="#e2cfa4" stroke="#3a2814" stroke-width="1"/></g><g><path d="M73.2 307.3 Q70.5 323.3 69.2 336.7 L85.3 336.7 Q83.9 323.3 81.2 307.3 Z" fill="#e2cfa4" stroke="#3a2814" stroke-width="1.2"/><path d="M78.6 311.3 L79.2 335.4" stroke="#3a2814" stroke-width=".8" opacity=".6"/><circle cx="77.2" cy="301.9" r="4.4" fill="#e2cfa4" stroke="#3a2814" stroke-width="1.1"/><path d="M72.2 305.9 Q71.9 295.9 77.2 296.6 L77.2 296.6 Q82.6 295.9 82.2 305.9 Z" fill="#e2cfa4" stroke="#3a2814" stroke-width="1"/></g><g><path d="M96.5 306.9 Q93.8 323.3 92.4 336.9 L108.8 336.9 Q107.4 323.3 104.7 306.9 Z" fill="#a3845a" stroke="#3a2814" stroke-width="1.2"/><path d="M102 311 L102.6 335.5" stroke="#3a2814" stroke-width=".8" opacity=".6"/><circle cx="100.6" cy="301.5" r="4.4" fill="#e2cfa4" stroke="#3a2814" stroke-width="1.1"/><path d="M95.5 305.6 Q95.2 295.4 100.6 296 L100.6 296 Q106 295.4 105.7 305.6 Z" fill="#a3845a" stroke="#3a2814" stroke-width="1"/></g><g><path d="M120.8 306.4 Q118 323.2 116.6 337.2 L133.4 337.2 Q132 323.2 129.2 306.4 Z" fill="#e2cfa4" stroke="#3a2814" stroke-width="1.2"/><path d="M123.6 310.6 L122.9 335.8" stroke="#3a2814" stroke-width=".8" opacity=".6"/><circle cx="125" cy="300.8" r="4.6" fill="#e2cfa4" stroke="#3a2814" stroke-width="1.1"/><path d="M119.8 305 Q119.4 294.5 125 295.2 L125 295.2 Q130.6 294.5 130.3 305 Z" fill="#e2cfa4" stroke="#3a2814" stroke-width="1"/></g><rect x="5" y="5" width="590" height="350" fill="none" stroke="#3a2814" stroke-width="2"/><rect x="11" y="11" width="578" height="338" fill="none" stroke="#3a2814" stroke-width=".8"/></svg>